<?xml version="1.0" encoding="utf-8" ?>
<svg xmlns="http://www.w3.org/2000/svg" xmlns:xlink="http://www.w3.org/1999/xlink" width="512" height="512">
	<path fill="#FBFBFA" transform="scale(0.666667 0.666667)" d="M-0 -0L768 0L768 768L-0 768L0 -0Z"/>
	<path fill="#02ADE4" transform="scale(0.666667 0.666667)" d="M371.519 26.4134L371.742 26.3914C386.886 25.6388 402.131 26.4023 417.208 27.7996C448.919 30.7385 480.646 37.8527 510.461 49.1439L528.339 56.8021C564.203 72.7793 597.25 94.2121 626.062 120.91C635 129.191 643.274 138.084 651.453 147.103C660.192 156.741 668.702 166.401 676.361 176.938C683.382 186.597 689.584 196.765 695.53 207.111C712.439 236.538 725.606 268.721 732.853 301.949C737.816 324.702 740.003 348.157 740.879 371.403C741.374 384.534 740.631 397.582 739.533 410.658C737.869 430.47 734.86 450.205 729.858 469.459C718.683 512.472 698.405 553.329 671.366 588.561C665.559 596.126 659.717 603.495 653.223 610.489C610.834 656.141 558.5 693.864 499.136 713.97C486.094 718.387 472.485 721.696 459.036 724.607C438.473 729.058 417.654 732.055 396.612 732.84C379.183 733.913 361.522 732.551 344.215 730.475C323.747 728.021 303.403 724.152 283.617 718.322C271.677 714.804 260.257 710.475 248.747 705.757C211.621 690.539 177.096 669.848 146.849 643.4C128.671 627.505 111.359 609.217 96.8577 589.911C57.0422 536.901 32.0894 471.014 27.8552 404.834C26.0706 376.94 27.6058 349.493 32.0841 321.922C33.6645 312.192 35.3831 302.637 37.8571 293.086C40.369 283.388 43.6292 273.884 47.0331 264.469C62.6258 221.342 86.534 181.522 116.802 147.077C136.385 124.792 158.636 105.83 183.054 89.0731C206.263 73.1453 230.602 59.3551 256.941 49.2496C293.476 35.2329 332.643 28.8999 371.519 26.4134Z"/>
	<path fill="#FBFBFA" transform="scale(0.666667 0.666667)" d="M536.4 520.293C539.968 522.401 543.375 525.851 546.399 528.684L564.642 546.749L555.873 554.748L554.982 555.605C552.856 554.149 550.923 551.433 549.076 549.547L528.531 527.953L536.4 520.293Z"/>
	<path fill="#FBFBFA" transform="scale(0.666667 0.666667)" d="M551.295 504.188L552.379 504.057L581.809 527.806L573.249 538.043C573.026 538.551 573.212 538.301 572.551 538.662L543.961 512.255L551.295 504.188Z"/>
	<path fill="#FBFBFA" transform="scale(0.666667 0.666667)" d="M216.712 507.488C219.248 510.787 222.36 513.706 225.409 516.524C220.897 519.947 216.909 524.021 212.681 527.782C207.34 532.532 201.354 536.944 196.785 542.452L187.262 530.658C196.166 522.081 206.913 515.016 216.712 507.488Z"/>
	<path fill="#FBFBFA" transform="scale(0.666667 0.666667)" d="M232.146 523.688L232.636 523.769L241.979 532.146L216.058 560.952L205.55 550.282L216.184 539.272L226.175 530.062C228.171 528.205 230.489 526.275 231.969 523.978L232.146 523.688Z"/>
	<path fill="#FBFBFA" transform="scale(0.666667 0.666667)" d="M612.449 297.938L613.259 297.935L619.406 313.525L583.626 325.099L582.75 325.382C582.562 325.273 582.333 325.216 582.188 325.055C582.063 324.918 581.81 323.617 581.753 323.413L579.875 317.425C579.286 315.743 578.542 314.123 577.805 312.501L612.449 297.938Z"/>
	<path fill="#FBFBFA" transform="scale(0.666667 0.666667)" d="M211.621 209.241L240.576 237.702C238.376 239.941 235.994 242.075 233.901 244.411C232.966 245.454 232.275 246.654 231.325 247.688L230.438 246.95L200.371 220.485L211.621 209.241Z"/>
	<path fill="#FBFBFA" transform="scale(0.666667 0.666667)" d="M156.111 296.254C158.951 298.457 162.547 299.914 165.82 301.351L183.786 308.9C185.973 309.858 188.714 310.755 190.612 312.175L185.873 324.562L184.778 324.188C180.427 322.531 175.733 321.525 171.218 320.406L149.604 315.15L156.111 296.254Z"/>
	<path fill="#FBFBFA" transform="scale(0.666667 0.666667)" d="M576.448 232.099C581.005 236.305 584.757 241.628 588.807 246.323C586.742 248.037 584.323 249.406 582.122 250.951L559.131 266.185L555.649 268.791L547.69 257.61L576.448 232.099Z"/>
	<path fill="#FBFBFA" transform="scale(0.666667 0.666667)" d="M581.856 447.215L618.959 460.117C616.175 465.328 614.302 470.925 612.444 476.515C612.353 476.904 612.071 477.123 611.812 477.417C600.206 471.846 588.551 465.008 576.352 460.894C578.62 456.683 580.117 451.685 581.856 447.215Z"/>
	<path fill="#FBFBFA" transform="scale(0.666667 0.666667)" d="M555.646 209.624C559.814 214.237 563.934 218.139 568.756 222.078L539.748 247.085C539.029 247.688 538.388 248.189 537.562 248.648C534.333 244.867 530.899 241.804 527.057 238.652L555.646 209.624Z"/>
	<path fill="#FBFBFA" transform="scale(0.666667 0.666667)" d="M528.76 189.04C534.043 191.915 538.647 195.894 543.557 199.332L518.99 227.816L517.78 229.688C516.413 229.381 514.805 227.384 513.75 226.414C511.428 224.28 509.177 222.199 506.495 220.517L505.874 220.135L528.76 189.04Z"/>
	<path fill="#FBFBFA" transform="scale(0.666667 0.666667)" d="M276.068 555.836L289.596 563.214C288.655 566.354 286.229 569.966 284.744 572.99L278.903 584.984L274.499 594.6C273.949 595.757 273.419 597.378 272.438 598.19L271.31 597.759L256.293 590.689C256.316 589.633 258.455 586.699 259.024 585.64C264.469 575.504 269.685 565.43 276.068 555.836Z"/>
	<path fill="#FBFBFA" transform="scale(0.666667 0.666667)" d="M186.052 444.938L187.077 444.938L192.61 458.694L192.798 459.06L156.834 474.782L156.322 475.074L149.697 456.602L186.052 444.938Z"/>
	<path fill="#FBFBFA" transform="scale(0.666667 0.666667)" d="M251.537 539.023C255.03 542.274 259.379 545.448 263.499 547.867L263.845 548.066C259.131 556.587 253.571 564.451 248.297 572.619L244.801 578.171C244.161 579.246 243.727 580.458 242.644 581.102L240.327 579.698L226.552 568.86L251.537 539.023Z"/>
	<path fill="#FBFBFA" transform="scale(0.666667 0.666667)" d="M240.072 187.091L261.812 219.962L250.126 230.368L248.165 227.878L223.752 200.166L240.072 187.091Z"/>
	<path fill="#FBFBFA" transform="scale(0.666667 0.666667)" d="M193.175 230.174L223.962 257.062C221.6 259.342 219.086 261.619 216.938 264.097C215.913 265.279 215.179 266.641 214.125 267.808L213.13 267.364L181.381 246.969L181.001 246.779L193.175 230.174Z"/>
	<path fill="#FBFBFA" transform="scale(0.666667 0.666667)" d="M518.187 535.688L519.185 535.54C522.198 537.826 524.909 540.775 527.567 543.464C534.16 550.134 540.249 557.261 546.236 564.475C545.662 565.688 540.341 568.387 538.958 569.354C536.904 570.79 534.99 572.417 533.073 574.028L529.418 577.37C527.779 575.695 526.603 572.682 525.278 570.658L514.29 554.312C512.19 551.129 510.415 547.71 507.994 544.753L507.63 544.313L518.187 535.688Z"/>
	<path fill="#FBFBFA" transform="scale(0.666667 0.666667)" d="M270.101 168.188L270.874 168.19L289.821 203.521L281.119 208.321C279.368 209.398 277.681 210.942 275.812 211.762L275.062 210.886L254.235 176.43L270.101 168.188Z"/>
	<path fill="#FBFBFA" transform="scale(0.666667 0.666667)" d="M330.259 577.693L347.122 581.359L341.721 618.268L338.909 617.842L320.95 614.916L330.259 577.693Z"/>
	<path fill="#FBFBFA" transform="scale(0.666667 0.666667)" d="M496.144 550.768L516.101 583.289L516.366 583.667C511.65 587.517 505.349 590.3 499.995 593.262C499.49 593.609 499.166 593.752 498.562 593.86C496.516 590.826 495.09 587.167 493.481 583.875L486.428 570.043C484.842 566.933 483.392 563.823 481.198 561.082L480.815 560.608C481.04 559.768 485.718 557.524 486.768 556.927C490.042 555.064 493.107 552.993 496.144 550.768Z"/>
	<path fill="#FBFBFA" transform="scale(0.666667 0.666667)" d="M299.832 567.944L317.733 574.644C314.849 579.891 313.207 586.098 311.208 591.751C309.259 597.264 306.505 603.328 305.647 609.083C305.531 609.861 305.572 609.839 305.062 610.526L303.938 610.219L285.402 603.888L299.832 567.944Z"/>
	<path fill="#FBFBFA" transform="scale(0.666667 0.666667)" d="M497.557 169.17L516.357 179.423L496.69 211.105L495.384 213.64C490.416 210.12 485.553 207.294 480.066 204.662L497.557 169.17Z"/>
	<path fill="#FBFBFA" transform="scale(0.666667 0.666667)" d="M435.24 577.312L436.112 577.355C437.4 580.1 438.071 583.492 438.904 586.419C441.506 595.564 443.483 605.199 446.851 614.079L429.499 618.08L423.9 619.209L418.49 580.646C423.971 580.166 429.921 578.741 435.24 577.312Z"/>
	<path fill="#FBFBFA" transform="scale(0.666667 0.666667)" d="M469.473 566.812L470.481 566.75L485.107 600.445C483.747 601.594 480.98 602.328 479.25 603.023L466.026 608.434L463.5 609.612C463.312 609.5 463.083 609.439 462.938 609.276C462.673 608.979 462.355 607.383 462.205 606.889L459.595 598.276C456.907 589.929 454.24 581.36 450.85 573.272C457.273 571.988 463.466 569.372 469.473 566.812Z"/>
	<path fill="#FBFBFA" transform="scale(0.666667 0.666667)" d="M370.489 138.476L390.444 138.415L390.627 180.683L370.88 180.992L370.489 138.476Z"/>
	<path fill="#FBFBFA" transform="scale(0.666667 0.666667)" d="M402.423 582.597C403.548 582.505 405.221 582.083 406.106 582.75L409.898 620.163L392.157 621.425L385.942 621.744L385.734 583.876L402.423 582.597Z"/>
	<path fill="#FBFBFA" transform="scale(0.666667 0.666667)" d="M310.655 152.062C311.054 152.019 311.329 152.096 311.717 152.181L322.236 190.592L303.859 197.514C303.072 197.116 302.445 195.402 302.015 194.572L287.406 160.851L310.655 152.062Z"/>
	<path fill="#FBFBFA" transform="scale(0.666667 0.666667)" d="M457.298 153.607L482.603 161.945L482.642 162.235C480.169 166.297 478.482 171.078 476.656 175.473L468.863 193.625L466.855 198.063L447.085 191.091C448.932 186.708 449.863 181.568 451.067 176.956L457.298 153.607Z"/>
	<path fill="#FBFBFA" transform="scale(0.666667 0.666667)" d="M620.922 327.562L621.689 327.493C622.79 328.46 623.141 332.05 623.481 333.601L627.811 354.621C622.896 356.07 617.156 356.407 612.057 357.064L590.674 359.752L589.875 359.837C588.851 359.038 588.577 353.788 588.325 352.282C587.446 347.027 586.081 341.854 584.655 336.724C585.962 336.127 587.831 336.002 589.262 335.661L601.851 332.635L620.922 327.562Z"/>
	<path fill="#FBFBFA" transform="scale(0.666667 0.666667)" d="M140.99 369.663L178.773 374.327L178.808 396L178.312 396.51L174.659 396.83L140.511 400.05L140.99 369.663Z"/>
	<path fill="#FBFBFA" transform="scale(0.666667 0.666667)" d="M626.997 368.438C627.342 368.498 627.645 368.637 627.97 368.765L628.63 399.492L594.071 397.415L590.934 397.016L590.515 372.445L626.997 368.438Z"/>
	<path fill="#FBFBFA" transform="scale(0.666667 0.666667)" d="M177.533 409.266C178.281 409.114 178.71 409.007 179.438 409.279L184.724 433.777C172.892 437.071 160.475 439.386 149.062 443.957L148.119 444.25C146.866 443.032 142.325 417.464 141.47 414.058L177.533 409.266Z"/>
	<path fill="#FBFBFA" transform="scale(0.666667 0.666667)" d="M572.097 472.336C574.226 473.98 576.854 475.233 579.213 476.536C587.269 480.988 596.685 484.587 604.056 490.023L589.392 516.938L588.74 517.474L558.044 494.612L572.097 472.336Z"/>
	<path fill="#FBFBFA" transform="scale(0.666667 0.666667)" d="M147.356 326.836L185.238 336.284C182.627 344.517 180.932 353.76 179.837 362.332L141.674 356.393L147.356 326.836Z"/>
	<path fill="#FBFBFA" transform="scale(0.666667 0.666667)" d="M174.861 257.012C178.619 259.903 183.079 262.26 187.148 264.719L207.846 276.891C204.739 280.539 202.408 285.233 200.261 289.5C198.412 293.177 196.454 296.892 194.888 300.698L194.759 301.019L193.705 300.938L160.5 285.357C160.607 284.78 160.507 285.037 160.857 284.485C163.452 280.4 165.412 275.835 167.529 271.485L174.861 257.012Z"/>
	<path fill="#FBFBFA" transform="scale(0.666667 0.666667)" d="M594.062 258.376L608.182 286.082L608.377 286.395L575.341 301.288C574.379 301.715 574.174 301.972 573.169 301.711L561.731 278.6L594.062 258.376Z"/>
	<path fill="#FBFBFA" transform="scale(0.666667 0.666667)" d="M590.648 408.391L627.567 414.386L623.161 438.118L622.201 443.637C622.162 443.869 622.086 444.861 621.966 445.047C621.778 445.339 621.447 445.508 621.188 445.739L584.273 435.483L590.648 408.391Z"/>
	<path fill="#FBFBFA" transform="scale(0.666667 0.666667)" d="M196.522 471.938L197.588 471.785L212.157 496.59L179.721 519.074C173.439 509.103 169.184 497.65 163.947 487.113L196.522 471.938Z"/>
	<path fill="#FBFBFA" transform="scale(0.666667 0.666667)" d="M383.829 230.054C415.765 229.229 449.813 240.397 475.773 258.84C481.081 262.611 485.963 266.94 490.742 271.35C521.467 299.71 538.254 338.898 539.841 380.492C540.911 408.506 534.995 437.295 521.218 461.812C515.587 471.834 508.182 481.391 500.362 489.795C479.565 512.145 452.965 528.261 423.278 535.72C411.229 538.748 398.925 540.163 386.535 540.6C347.299 540.902 309.161 527.937 280.07 501.188C249.491 473.071 231.756 434.443 230.238 392.892C228.72 351.347 240.411 311.28 269.113 280.498C291.038 256.982 318.091 240.802 349.635 233.954C360.866 231.516 372.364 230.459 383.829 230.054Z"/>
	<path fill="#02ADE4" transform="scale(0.666667 0.666667)" d="M379.158 276.536C400.402 275.907 421.53 280.524 440.062 291.162C445.883 294.504 451.441 298.679 456.663 302.89C478.385 320.405 492.222 346.375 495.113 374.013C498.017 401.782 490.916 431.762 473.106 453.606C452.607 478.75 422.681 493.271 390.643 496.437C360.839 497.252 332.9 487.865 310.478 467.996C288.958 448.927 275.508 422.475 273.77 393.636C271.949 363.411 281.282 334.99 301.57 312.344C321.233 290.395 350.041 278.195 379.158 276.536Z"/>
	<path fill="#FBFBFA" transform="scale(0.666667 0.666667)" d="M360.429 306.542L387.879 306.497L403.046 306.345C405.838 306.331 408.805 306.177 411.577 306.518C421.839 307.784 431.408 313.287 437.706 321.47C440.2 324.71 442.33 328.772 443.014 332.835C443.855 337.834 443.463 343.237 443.408 348.294L443.309 368.652L443.254 405.563C443.241 414.122 443.546 422.738 442.535 431.25C441.838 437.119 439.534 442.772 435.967 447.487C429.211 456.413 420.613 460.802 409.686 462.33L377.645 462.698C370.276 462.697 362.205 463.334 354.959 461.935C348.56 460.699 342.367 458.406 337.326 454.169C330.986 448.84 326.122 440.334 325.572 431.951C325.18 425.981 325.522 419.801 325.524 413.812L325.506 379.181L325.493 350.846C325.486 344.612 325.006 337.905 326.155 331.766C327.074 326.858 329.46 322.716 332.777 319.036C340.116 310.894 349.675 307.147 360.429 306.542Z"/>
	<path fill="#02ADE4" transform="scale(0.666667 0.666667)" d="M364.647 327.904L383.508 327.808L398.542 327.758C402.891 327.755 407.553 327.6 411.685 329.155C415.305 330.517 418.857 333.495 420.362 337.127C420.815 338.222 421.091 339.317 421.162 340.5C421.486 345.878 421.252 351.427 421.299 356.824L421.266 398.982L421.297 417.651C421.35 421.039 421.779 424.702 421.486 428.062C421.43 428.701 421.294 429.214 421.023 429.79C420.331 431.265 419.536 432.722 418.537 434.013C415.142 438.399 411.065 439.576 405.801 440.229L382.49 439.997C376.047 440.005 368.758 440.754 362.446 439.742C359.374 439.249 356.559 438.001 354.05 436.186C351.48 434.329 348.144 430.967 347.795 427.702C347.314 423.213 347.914 418.092 347.929 413.533L347.985 379.003L347.855 352.506C347.788 348.092 347.236 343.133 347.69 338.764C347.901 336.734 349.14 334.916 350.467 333.434C354.299 329.157 359.22 328.269 364.647 327.904Z"/>
</svg>
